<?xml version="1.0" encoding="UTF-8" standalone="no"?>
<!-- Uploaded to: SVG Repo, www.svgrepo.com, Generator: SVG Repo Mixer Tools -->

<svg
   width="800px"
   height="800px"
   viewBox="0 0 400 400"
   version="1.1"
   id="svg27"
   xmlns="http://www.w3.org/2000/svg"
   xmlns:svg="http://www.w3.org/2000/svg">
  <defs
     id="defs4">
    <style
       id="style2">.cls-1{fill:#101010;}</style>
  </defs>
  <title
     id="title6" />
  <g
     id="xxx-word">
    <path
       class="cls-1"
       d="M325,105H250a5,5,0,0,1-5-5V25a5,5,0,1,1,10,0V95h70a5,5,0,0,1,0,10Z"
       id="path8" />
    <path
       class="cls-1"
       d="M325,154.83a5,5,0,0,1-5-5V102.07L247.93,30H100A20,20,0,0,0,80,50v98.17a5,5,0,0,1-10,0V50a30,30,0,0,1,30-30H250a5,5,0,0,1,3.54,1.46l75,75A5,5,0,0,1,330,100v49.83A5,5,0,0,1,325,154.83Z"
       id="path10" />
    <path
       class="cls-1"
       d="M300,380H100a30,30,0,0,1-30-30V275a5,5,0,0,1,10,0v75a20,20,0,0,0,20,20H300a20,20,0,0,0,20-20V275a5,5,0,0,1,10,0v75A30,30,0,0,1,300,380Z"
       id="path12" />
    <path
       class="cls-1"
       d="M275,280H125a5,5,0,1,1,0-10H275a5,5,0,0,1,0,10Z"
       id="path14" />
    <path
       class="cls-1"
       d="M325,280H75a30,30,0,0,1-30-30V173.17a30,30,0,0,1,30-30h.2l250,1.66a30.09,30.09,0,0,1,29.81,30V250A30,30,0,0,1,325,280ZM75,153.17a20,20,0,0,0-20,20V250a20,20,0,0,0,20,20H325a20,20,0,0,0,20-20V174.83a20.06,20.06,0,0,0-19.88-20l-250-1.66Z"
       id="path18" />
    <path
       class="cls-1"
       d="M168.48,217.48l8.91,1a20.84,20.84,0,0,1-6.19,13.18q-5.33,5.18-14,5.18-7.31,0-11.86-3.67a23.43,23.43,0,0,1-7-10,37.74,37.74,0,0,1-2.46-13.87q0-12.19,5.78-19.82t15.9-7.64a18.69,18.69,0,0,1,13.2,4.88q5.27,4.88,6.64,14l-8.91.94q-2.46-12.07-10.86-12.07-5.39,0-8.38,5t-3,14.55q0,9.69,3.2,14.63t8.48,4.94a9.3,9.3,0,0,0,7.19-3.32A13.25,13.25,0,0,0,168.48,217.48Z"
       id="path20"
       style="fill:#0000ff" />
    <path
       class="cls-1"
       d="M179.41,223.15l9.34-2q1.68,7.93,12.89,7.93,5.12,0,7.87-2a6.07,6.07,0,0,0,2.75-5,7.09,7.09,0,0,0-1.25-4q-1.25-1.85-5.35-2.91l-10.2-2.66a25.1,25.1,0,0,1-7.73-3.11,12.15,12.15,0,0,1-4-4.9,15.54,15.54,0,0,1-1.5-6.76,14,14,0,0,1,5.31-11.46q5.31-4.32,13.59-4.32a24.86,24.86,0,0,1,12.29,3,13.56,13.56,0,0,1,6.89,8.52l-9.14,2.27q-2.11-6.05-9.84-6.05-4.49,0-6.86,1.88a5.83,5.83,0,0,0-2.36,4.77q0,4.57,7.42,6.41l9.06,2.27q8.24,2.07,11.05,6.11a15.29,15.29,0,0,1,2.81,8.93,14.7,14.7,0,0,1-5.92,12.36q-5.92,4.51-15.33,4.51a28,28,0,0,1-13.89-3.32A16.29,16.29,0,0,1,179.41,223.15Z"
       id="path22"
       style="fill:#0000ff" />
    <path
       class="cls-1"
       d="M250.31,236h-9.77L224.1,182.68h10.16l12.23,40.86L259,182.68h8Z"
       id="path24"
       style="fill:#0000ff" />
  </g>
  <path
     d="m 299.32737,335.60063 a 19.468524,20.282874 0 0 1 -19.46853,20.28288 h -3.8937 v -4.05657 h 3.8937 a 15.535883,16.185733 0 0 0 2.42579,-32.18487 l -3.07603,-0.50301 -0.20248,-3.23715 a 20.60938,21.47145 0 0 0 -39.7703,-6.36882 l -1.5458,4.12147 -3.80415,-1.95932 a 8.8659661,9.2368209 0 0 0 -3.90539,-0.96141 8.4882768,8.8433332 0 0 0 -4.54395,1.37518 8.5856193,8.9447472 0 0 0 -3.81583,5.65893 l -0.43998,2.04857 -1.85341,0.81131 a 15.57482,16.2263 0 0 0 6.01966,31.19912 h 15.57483 v 4.05657 h -15.57483 a 19.468524,20.282874 0 0 1 -7.53042,-38.98774 12.498793,13.021605 0 0 1 5.53685,-8.21051 12.343045,12.859342 0 0 1 6.62708,-2.008 12.724628,13.256886 0 0 1 5.6303,1.37924 24.503086,25.528027 0 0 1 47.28126,7.57362 19.4218,20.234195 0 0 1 16.43533,19.97051 z m -18.05511,-4.34053 -22.82879,23.7837 -11.14768,-11.61397 -2.75285,2.868 13.90053,14.48197 25.58164,-26.65169 z"
     id="path211"
     style="stroke-width:3.97432;fill:#0000ff" />
  <path
     fill="none"
     d="M 113.4175,30.179549 H 244.87915 V 181.65273 H 113.4175 Z"
     id="path213"
     style="stroke-width:5.87973" />
</svg>
